<svg width="11" height="17" viewBox="0 0 11 17" fill="none" xmlns="http://www.w3.org/2000/svg">
<path d="M6.01601 16.328V14.864C7.24801 14.784 8.23601 14.42 8.98001 13.772C9.72401 13.124 10.096 12.264 10.096 11.192V11.048C10.096 10.056 9.74801 9.27601 9.05201 8.70801C8.35601 8.14001 7.34401 7.77601 6.01601 7.61601V4.18401C6.57601 4.32801 7.02801 4.58401 7.37201 4.95201C7.71601 5.32001 7.88801 5.76801 7.88801 6.29601V6.58401H9.71201V6.15201C9.71201 5.70401 9.62401 5.27601 9.44801 4.86801C9.26846 4.45466 9.01651 4.07672 8.70401 3.75201C8.36738 3.40377 7.97372 3.11562 7.54001 2.90001C7.05972 2.66011 6.54591 2.49423 6.01601 2.40801V0.872009H4.28801V2.36001C3.80382 2.4053 3.32772 2.51424 2.87201 2.68401C2.42401 2.85201 2.03201 3.07601 1.69601 3.35601C1.36001 3.63601 1.09201 3.97201 0.892012 4.36401C0.692012 4.75601 0.592012 5.20801 0.592012 5.72001V5.86401C0.592012 6.82401 0.908012 7.57201 1.54001 8.10801C2.17201 8.64401 3.08801 8.99201 4.28801 9.15201V13.064C3.58401 12.904 3.04001 12.592 2.65601 12.128C2.27201 11.664 2.08001 11.048 2.08001 10.28V9.99201H0.256012V10.568C0.256012 11.032 0.336012 11.492 0.496012 11.948C0.656012 12.404 0.900012 12.828 1.22801 13.22C1.55601 13.612 1.97201 13.948 2.47601 14.228C2.98001 14.508 3.58401 14.704 4.28801 14.816V16.328H6.01601ZM4.28801 7.42401C3.60001 7.29601 3.12401 7.09201 2.86001 6.81201C2.59601 6.53201 2.46401 6.16801 2.46401 5.72001C2.46401 5.25601 2.64001 4.88801 2.99201 4.61601C3.34401 4.34401 3.77601 4.16801 4.28801 4.08801V7.42401V7.42401ZM6.01601 13.136V9.34401C6.78401 9.47201 7.34401 9.67201 7.69601 9.94401C8.04801 10.216 8.22401 10.632 8.22401 11.192C8.22401 11.736 8.02801 12.176 7.63601 12.512C7.24401 12.848 6.70401 13.056 6.01601 13.136Z" fill="#26C0AB"/>
</svg>
